{"title":"Suicide Squad 2016 720p HC HDRIP x264 AC3 TiTAN","uid":15977516,"size":2718320087,"categoryP":"video","categoryS":"hd___movies","magnet":"?xt=urn:btih:a53b9bef74069a4e762e1bc6d51a37d32a267ed5&amp;dn=Suicide+Squad+2016+720p+HC+HDRIP+x264+AC3+TiTAN&amp;tr=udp%3A%2F%2Ftracker.leechers-paradise.org%3A6969&amp;tr=udp%3A%2F%2Fzer0day.ch%3A1337&amp;tr=udp%3A%2F%2Fopen.demonii.com%3A1337&amp;tr=udp%3A%2F%2Ftracker.coppersurfer.tk%3A6969&amp;tr=udp%3A%2F%2Fexodus.desync.com%3A6969","seeders":11,"leechers":11,"uploader":"makintos13","files":2,"time":1475859450,"description":"Suicide Squad 2016 720p HC HDRIP x264 AC3 TiTAN  \r\n\r\nscreens:\r\n \nhttps://imgmak.com/ajQ\r\n \nhttps://imgmak.com/ajS\r\n \nhttps://imgmak.com/ajZ\r\n \nhttps://imgmak.com/ajc\r\n \nhttps://imgmak.com/ajn\r\n \nhttps://imgmak.com/ajr\r\n \nhttp://www.imdb.com/title/tt1386697/\r\n\r\nSource: 1080p Showscen- Big THX\r\n\r\nGeneral\r\n\r\nFormat                      : Matroska\r\nFormat version              : Version 2\r\nFile size                   : 2.53 GiB\r\nDuration                    : 2 h 2 min\r\nOverall bit rate mode       : Variable\r\nOverall bit rate            : 2 952 kb/s\r\n\r\nVideo\r\nID                          : 1\r\nFormat                      : AVC\r\nFormat/Info                 : Advanced Video Codec\r\nFormat profile              :   \r\nFormat settings, CABAC      : Yes\r\nFormat settings, ReFrames   : 3 frames\r\nCodec ID                    : V_MPEG4/ISO/AVC\r\nDuration                    : 2 h 2 min\r\nBit rate mode               : Variable\r\nBit rate                    : 2 726 kb/s\r\nMaximum bit rate            : 14.0 Mb/s\r\nWidth                       : 1 280 pixels\r\nHeight                      : 528 pixels\r\nDisplay aspect ratio        : 2.40:1\r\nFrame rate mode             : Constant\r\nFrame rate                  : 23.976 (24000/1001) FPS\r\nColor space                 : YUV\r\nChroma subsampling          : 4:2:0\r\nBit depth                   : 8 bits\r\nScan type                   : Progressive\r\nBits/(Pixel*Frame)          : 0.168\r\nStream size                 : 2.34 GiB (92%)\r\nDefault                     : Yes\r\nForced                      : No\r\nColor range                 : Full\r\nColor primaries             : BT.709\r\nTransfer characteristics    : BT.709\r\nMatrix coefficients         : BT.709\r\n\r\nAudio\r\nID                          : 2\r\nFormat                      : AC-3\r\nFormat/Info                 : Audio Coding 3\r\nMode extension              : CM (complete main)\r\nFormat settings, Endianness : Big\r\nCodec ID                    : A_AC3\r\nDuration                    : 2 h 2 min\r\nBit rate mode               : Constant\r\nBit rate                    : 224 kb/s\r\nChannel(s)                  : 2 channels\r\nChannel positions           : Front: L R\r\nSampling rate               : 48.0 kHz\r\nFrame rate                  : 31.250 FPS (1536 spf)\r\nCompression mode            : Lossy\r\nStream size                 : 197 MiB (8%)\r\nLanguage                    : English\r\nDefault                     : Yes\r\nForced                      : No","torrent":{"xt":"urn:btih:a53b9bef74069a4e762e1bc6d51a37d32a267ed5","amp;dn":"Suicide+Squad+2016+720p+HC+HDRIP+x264+AC3+TiTAN","amp;tr":["udp%3A%2F%2Ftracker.leechers-paradise.org%3A6969","udp%3A%2F%2Fzer0day.ch%3A1337","udp%3A%2F%2Fopen.demonii.com%3A1337","udp%3A%2F%2Ftracker.coppersurfer.tk%3A6969","udp%3A%2F%2Fexodus.desync.com%3A6969"],"infoHash":"a53b9bef74069a4e762e1bc6d51a37d32a267ed5","infoHashBuffer":{"type":"Buffer","data":[165,59,155,239,116,6,154,78,118,46,27,198,213,26,55,211,42,38,126,213]},"announce":[],"urlList":[]}}